<?xml version="1.0" encoding="utf-8"?>
<!-- Generator: Adobe Illustrator 15.1.0, SVG Export Plug-In . SVG Version: 6.00 Build 0)  -->
<!DOCTYPE svg PUBLIC "-//W3C//DTD SVG 1.1//EN" "http://www.w3.org/Graphics/SVG/1.1/DTD/svg11.dtd">
<svg version="1.1" id="Layer_1" xmlns="http://www.w3.org/2000/svg" xmlns:xlink="http://www.w3.org/1999/xlink" x="0px" y="0px"
	 width="24.098px" height="27.707px" viewBox="0 0 24.098 27.707" enable-background="new 0 0 24.098 27.707" xml:space="preserve">
<g display="none">
	<defs>
		<path id="SVGID_1_" d="M20.036,19.226c-1.013,0-1.92,0.402-2.613,1.031l-9.507-5.555c0.067-0.308,0.12-0.616,0.12-0.938
			c0-0.322-0.053-0.63-0.12-0.938l9.4-5.502c0.72,0.67,1.667,1.085,2.72,1.085c2.213,0,4-1.794,4-4.016s-1.787-4.016-4-4.016
			s-4,1.794-4,4.016c0,0.321,0.053,0.629,0.12,0.937l-9.4,5.502c-0.72-0.67-1.667-1.085-2.72-1.085c-2.213,0-4,1.794-4,4.017
			c0,2.222,1.787,4.017,4,4.017c1.053,0,2-0.415,2.72-1.085l9.493,5.568c-0.066,0.281-0.105,0.576-0.105,0.87
			c0,2.156,1.746,3.909,3.893,3.909s3.893-1.753,3.893-3.909C23.929,20.981,22.183,19.226,20.036,19.226z"/>
	</defs>
	<use xlink:href="#SVGID_1_"  display="inline" overflow="visible" fill-rule="evenodd" clip-rule="evenodd" fill="#FFFFFF"/>
	<clipPath id="SVGID_2_" display="inline">
		<use xlink:href="#SVGID_1_"  overflow="visible"/>
	</clipPath>
	<g clip-path="url(#SVGID_2_)">
		<defs>
			<rect id="SVGID_3_" x="-3.964" y="-2.289" width="32" height="33"/>
		</defs>
		<clipPath id="SVGID_4_" display="inline">
			<use xlink:href="#SVGID_3_"  overflow="visible"/>
		</clipPath>
		<g display="inline" clip-path="url(#SVGID_4_)" enable-background="new    ">
			<g>
				<defs>
					<rect id="SVGID_5_" x="0.036" y="-0.289" width="24" height="28"/>
				</defs>
				<clipPath id="SVGID_6_">
					<use xlink:href="#SVGID_5_"  overflow="visible"/>
				</clipPath>
				<g clip-path="url(#SVGID_6_)">
					<defs>
						<rect id="SVGID_7_" x="0.036" y="-0.289" width="24" height="28"/>
					</defs>
					<clipPath id="SVGID_8_">
						<use xlink:href="#SVGID_7_"  overflow="visible"/>
					</clipPath>
					<rect x="-4.964" y="-4.622" clip-path="url(#SVGID_8_)" fill="#536274" width="34" height="36.666"/>
				</g>
				<g clip-path="url(#SVGID_6_)">
					<defs>
						<rect id="SVGID_9_" x="-3.964" y="-2.289" width="32" height="32"/>
					</defs>
					<clipPath id="SVGID_10_">
						<use xlink:href="#SVGID_9_"  overflow="visible"/>
					</clipPath>
					<g clip-path="url(#SVGID_10_)">
						<defs>
							<rect id="SVGID_11_" x="0.036" y="-0.289" width="24" height="28"/>
						</defs>
						<clipPath id="SVGID_12_">
							<use xlink:href="#SVGID_11_"  overflow="visible"/>
						</clipPath>
						<rect x="-8.577" y="-7.289" clip-path="url(#SVGID_12_)" fill="#FFFFFF" width="42" height="42"/>
					</g>
				</g>
			</g>
		</g>
	</g>
</g>
<g display="none">
	<defs>
		<path id="SVGID_13_" d="M24.065,5.548c-0.899,0.4-1.8,0.701-2.8,0.801c1-0.6,1.8-1.6,2.201-2.699
			c-1.001,0.599-2.001,0.999-3.102,1.2c-0.899-1-2.198-1.601-3.599-1.601c-2.7,0-4.898,2.2-4.898,4.9c0,0.399,0,0.799,0.099,1.099
			c-4.199-0.2-7.799-2.2-10.198-5.2c-0.5,0.801-0.7,1.6-0.7,2.5c0,1.7,0.899,3.2,2.198,4.1c-0.799,0-1.599-0.201-2.198-0.601
			c0,0,0,0,0,0.1c0,2.4,1.7,4.4,3.899,4.799c-0.4,0.101-0.8,0.201-1.3,0.201c-0.301,0-0.6,0-0.899-0.101
			c0.599,2,2.399,3.398,4.6,3.398c-1.701,1.301-3.8,2.101-6.1,2.101c-0.4,0-0.799,0-1.199-0.101c2.199,1.4,4.799,2.2,7.499,2.2
			c9.099,0,13.999-7.498,13.999-13.998v-0.6C22.566,7.348,23.366,6.448,24.065,5.548z"/>
	</defs>
	<use xlink:href="#SVGID_13_"  display="inline" overflow="visible" fill-rule="evenodd" clip-rule="evenodd" fill="#FFFFFF"/>
	<clipPath id="SVGID_14_" display="inline">
		<use xlink:href="#SVGID_13_"  overflow="visible"/>
	</clipPath>
	<g clip-path="url(#SVGID_14_)">
		<defs>
			<rect id="SVGID_15_" x="-2.331" y="-1.551" width="28.797" height="29.697"/>
		</defs>
		<clipPath id="SVGID_16_" display="inline">
			<use xlink:href="#SVGID_15_"  overflow="visible"/>
		</clipPath>
		<g display="inline" clip-path="url(#SVGID_16_)" enable-background="new    ">
			<g>
				<defs>
					<rect id="SVGID_17_" x="-0.531" y="2.948" width="25.197" height="19.798"/>
				</defs>
				<clipPath id="SVGID_18_">
					<use xlink:href="#SVGID_17_"  overflow="visible"/>
				</clipPath>
				<g clip-path="url(#SVGID_18_)">
					<defs>
						<rect id="SVGID_19_" x="-0.531" y="2.948" width="25.197" height="19.798"/>
					</defs>
					<clipPath id="SVGID_20_">
						<use xlink:href="#SVGID_19_"  overflow="visible"/>
					</clipPath>
					<rect x="-4.43" y="-1.251" clip-path="url(#SVGID_20_)" fill="#439CD6" width="32.996" height="28.397"/>
				</g>
				<g clip-path="url(#SVGID_18_)">
					<defs>
						<rect id="SVGID_21_" x="-2.331" y="-1.551" width="28.797" height="28.796"/>
					</defs>
					<clipPath id="SVGID_22_">
						<use xlink:href="#SVGID_21_"  overflow="visible"/>
					</clipPath>
					<g clip-path="url(#SVGID_22_)">
						<defs>
							<rect id="SVGID_23_" x="-0.531" y="2.948" width="25.197" height="19.798"/>
						</defs>
						<clipPath id="SVGID_24_">
							<use xlink:href="#SVGID_23_"  overflow="visible"/>
						</clipPath>
						<rect x="-13.58" y="-3.8" clip-path="url(#SVGID_24_)" fill="#FFFFFF" width="37.795" height="37.795"/>
					</g>
				</g>
			</g>
		</g>
	</g>
</g>
<g>
	<defs>
		<path id="SVGID_25_" d="M9.055,27.547l-0.04-12.465H4.029v-4.986h4.986V6.981c0-4.626,2.865-6.856,6.992-6.856
			c1.977,0,3.675,0.147,4.171,0.212v4.836l-2.862,0.001c-2.244,0-2.68,1.065-2.68,2.631v2.291h6.532l-2.492,4.986h-4.04v12.465
			H9.055z"/>
	</defs>
	<use xlink:href="#SVGID_25_"  overflow="visible" fill-rule="evenodd" clip-rule="evenodd" fill="#FFFFFF"/>
	<clipPath id="SVGID_26_">
		<use xlink:href="#SVGID_25_"  overflow="visible"/>
	</clipPath>
	<g display="none" clip-path="url(#SVGID_26_)">
		<defs>
			<rect id="SVGID_27_" x="-5.112" y="-4.445" width="36.564" height="37.707"/>
		</defs>
		<clipPath id="SVGID_28_" display="inline">
			<use xlink:href="#SVGID_27_"  overflow="visible"/>
		</clipPath>
		<g display="inline" clip-path="url(#SVGID_28_)" enable-background="new    ">
			<g>
				<defs>
					<rect id="SVGID_29_" x="4.029" y="0.125" width="17.139" height="27.422"/>
				</defs>
				<clipPath id="SVGID_30_">
					<use xlink:href="#SVGID_29_"  overflow="visible"/>
				</clipPath>
				<g clip-path="url(#SVGID_30_)">
					<defs>
						<rect id="SVGID_31_" x="4.029" y="0.125" width="17.139" height="27.422"/>
					</defs>
					<clipPath id="SVGID_32_">
						<use xlink:href="#SVGID_31_"  overflow="visible"/>
					</clipPath>
					<rect x="-1.684" y="-5.588" clip-path="url(#SVGID_32_)" fill="#3C5A99" width="28.566" height="38.849"/>
				</g>
				<g clip-path="url(#SVGID_30_)">
					<defs>
						<rect id="SVGID_33_" x="-5.112" y="-4.445" width="36.564" height="36.564"/>
					</defs>
					<clipPath id="SVGID_34_">
						<use xlink:href="#SVGID_33_"  overflow="visible"/>
					</clipPath>
					<g clip-path="url(#SVGID_34_)">
						<defs>
							<rect id="SVGID_35_" x="4.029" y="0.125" width="17.139" height="27.422"/>
						</defs>
						<clipPath id="SVGID_36_">
							<use xlink:href="#SVGID_35_"  overflow="visible"/>
						</clipPath>
						<rect x="-10.825" y="-10.159" clip-path="url(#SVGID_36_)" fill="#FFFFFF" width="47.99" height="47.99"/>
					</g>
				</g>
			</g>
		</g>
	</g>
</g>
<g display="none">
	<defs>
		<path id="SVGID_37_" d="M21.559,8.951l-9.522,5.951L2.514,8.951V6.57l9.522,5.952l9.522-5.952V8.951z M21.559,4.189H2.514
			c-1.309,0-2.38,1.071-2.38,2.381v14.283c0,1.31,1.071,2.381,2.38,2.381h19.045c1.309,0,2.38-1.071,2.38-2.381V6.57
			C23.938,5.26,22.867,4.189,21.559,4.189z"/>
	</defs>
	<clipPath id="SVGID_38_" display="inline">
		<use xlink:href="#SVGID_37_"  overflow="visible"/>
	</clipPath>
	<g clip-path="url(#SVGID_38_)">
		<defs>
			<rect id="SVGID_39_" x="-2.247" y="-0.572" width="28.566" height="29.459"/>
		</defs>
		<clipPath id="SVGID_40_" display="inline">
			<use xlink:href="#SVGID_39_"  overflow="visible"/>
		</clipPath>
		<g display="inline" clip-path="url(#SVGID_40_)" enable-background="new    ">
			<g>
				<defs>
					<rect id="SVGID_41_" x="-0.461" y="3.892" width="24.996" height="19.639"/>
				</defs>
				<clipPath id="SVGID_42_">
					<use xlink:href="#SVGID_41_"  overflow="visible"/>
				</clipPath>
				<g clip-path="url(#SVGID_42_)">
					<defs>
						<rect id="SVGID_43_" x="-0.461" y="3.892" width="24.996" height="19.639"/>
					</defs>
					<clipPath id="SVGID_44_">
						<use xlink:href="#SVGID_43_"  overflow="visible"/>
					</clipPath>
					<rect x="-4.33" y="-0.274" clip-path="url(#SVGID_44_)" fill="#010101" width="32.732" height="27.972"/>
				</g>
				<g clip-path="url(#SVGID_42_)">
					<defs>
						<rect id="SVGID_45_" x="-2.247" y="-0.572" width="28.566" height="28.566"/>
					</defs>
					<clipPath id="SVGID_46_">
						<use xlink:href="#SVGID_45_"  overflow="visible"/>
					</clipPath>
					<g clip-path="url(#SVGID_46_)">
						<defs>
							<rect id="SVGID_47_" x="-0.461" y="3.892" width="24.996" height="19.639"/>
						</defs>
						<clipPath id="SVGID_48_">
							<use xlink:href="#SVGID_47_"  overflow="visible"/>
						</clipPath>
						<rect x="-6.71" y="-5.035" clip-path="url(#SVGID_48_)" fill="#FFFFFF" width="37.494" height="37.494"/>
					</g>
				</g>
			</g>
		</g>
	</g>
</g>
<g display="none">
	<defs>
		<path id="SVGID_49_" d="M19.16,2.681H5.037v4.708H19.16V2.681z M20.337,13.274c-0.706,0-1.177-0.471-1.177-1.177
			s0.471-1.178,1.177-1.178s1.178,0.472,1.178,1.178S21.043,13.274,20.337,13.274z M16.807,21.512H7.391v-5.884h9.416V21.512z
			 M20.337,8.566H3.86c-2,0-3.531,1.53-3.531,3.531v7.062h4.708v4.708H19.16v-4.708h4.708v-7.062
			C23.868,10.096,22.338,8.566,20.337,8.566z"/>
	</defs>
	<use xlink:href="#SVGID_49_"  display="inline" overflow="visible" fill-rule="evenodd" clip-rule="evenodd" fill="#FFFFFF"/>
	<clipPath id="SVGID_50_" display="inline">
		<use xlink:href="#SVGID_49_"  overflow="visible"/>
	</clipPath>
	<g clip-path="url(#SVGID_50_)">
		<defs>
			<rect id="SVGID_51_" x="-2.025" y="-0.85" width="28.248" height="29.131"/>
		</defs>
		<clipPath id="SVGID_52_" display="inline">
			<use xlink:href="#SVGID_51_"  overflow="visible"/>
		</clipPath>
		<g display="inline" clip-path="url(#SVGID_52_)" enable-background="new    ">
			<g>
				<defs>
					<rect id="SVGID_53_" x="-0.26" y="2.681" width="24.717" height="21.186"/>
				</defs>
				<clipPath id="SVGID_54_">
					<use xlink:href="#SVGID_53_"  overflow="visible"/>
				</clipPath>
				<g clip-path="url(#SVGID_54_)">
					<defs>
						<rect id="SVGID_55_" x="-0.26" y="2.681" width="24.717" height="21.186"/>
					</defs>
					<clipPath id="SVGID_56_">
						<use xlink:href="#SVGID_55_"  overflow="visible"/>
					</clipPath>
					<rect x="-4.084" y="-1.732" clip-path="url(#SVGID_56_)" fill="#010101" width="32.367" height="30.013"/>
				</g>
				<g clip-path="url(#SVGID_54_)">
					<defs>
						<rect id="SVGID_57_" x="-2.025" y="-0.85" width="28.248" height="28.248"/>
					</defs>
					<clipPath id="SVGID_58_">
						<use xlink:href="#SVGID_57_"  overflow="visible"/>
					</clipPath>
					<g clip-path="url(#SVGID_58_)">
						<defs>
							<rect id="SVGID_59_" x="-0.26" y="2.681" width="24.717" height="21.186"/>
						</defs>
						<clipPath id="SVGID_60_">
							<use xlink:href="#SVGID_59_"  overflow="visible"/>
						</clipPath>
						<rect x="-6.439" y="-5.264" clip-path="url(#SVGID_60_)" fill="#FFFFFF" width="37.075" height="37.075"/>
					</g>
				</g>
			</g>
		</g>
	</g>
</g>
</svg>
