<?xml version="1.0" encoding="utf-8"?>
<!-- Generator: Adobe Illustrator 15.1.0, SVG Export Plug-In . SVG Version: 6.00 Build 0)  -->
<!DOCTYPE svg PUBLIC "-//W3C//DTD SVG 1.1//EN" "http://www.w3.org/Graphics/SVG/1.1/DTD/svg11.dtd">
<svg version="1.1" id="Layer_1" xmlns="http://www.w3.org/2000/svg" xmlns:xlink="http://www.w3.org/1999/xlink" x="0px" y="0px"
	 width="180px" height="78.5px" viewBox="0 0 180 78.5" enable-background="new 0 0 180 78.5" xml:space="preserve">
<g>
	<g>
		<g>
			<path fill="#FFD002" d="M163.473,42.619c-1.75,3.295-4.274,6.494-7.439,9.405c-0.733,5.635-2.519,10.64-5.18,14.521
				c4.616-1.272,8.424-3.783,10.863-7.525C164.736,54.385,165.184,48.592,163.473,42.619 M111.924,11.952
				c-4.615,1.275-8.424,3.786-10.862,7.528c-3.021,4.635-3.467,10.428-1.758,16.404c1.749-3.298,4.273-6.498,7.438-9.411
				C107.477,20.841,109.262,15.836,111.924,11.952"/>
			<path fill="#FFCC64" d="M143.057,8.055c-1.21,0-2.45,0.085-3.711,0.261c1.907,1.417,3.733,3.13,5.434,5.103
				c6.329,0.62,11.834,2.729,15.695,6.144c-0.938-2.621-2.407-4.94-4.431-6.82C152.634,9.566,148.097,8.055,143.057,8.055"/>
			<path fill="#FFCC64" d="M102.3,58.938c0.939,2.621,2.407,4.94,4.432,6.82c3.412,3.176,7.949,4.689,12.989,4.689
				c1.21,0,2.45-0.09,3.711-0.261c-1.906-1.42-3.73-3.133-5.436-5.105C111.667,64.459,106.162,62.349,102.3,58.938"/>
			<path fill="#F48443" d="M102.223,42.823c-1.572,5.844-1.587,11.458,0.077,16.114c3.862,3.411,9.368,5.521,15.696,6.144
				c-2.722-3.15-5.124-6.957-7.037-11.265C107.299,50.407,104.349,46.658,102.223,42.823"/>
			<path fill="#F48443" d="M144.779,13.419c2.722,3.15,5.126,6.957,7.038,11.262c3.66,3.411,6.609,7.161,8.735,10.996
				c1.573-5.842,1.586-11.461-0.078-16.115C156.613,16.148,151.108,14.039,144.779,13.419"/>
			<path fill="#C6BE2E" d="M106.369,32.816c-1.867,3.318-3.258,6.699-4.146,10.007c2.126,3.835,5.076,7.584,8.736,10.993
				c-1.204-2.714-2.214-5.625-2.983-8.692C106.922,40.922,106.404,36.774,106.369,32.816 M151.816,24.681
				c1.205,2.714,2.213,5.627,2.984,8.692c1.054,4.202,1.571,8.355,1.606,12.311c1.868-3.319,3.258-6.699,4.146-10.01
				C158.427,31.842,155.478,28.092,151.816,24.681"/>
			<path fill="#BAD87D" d="M139.346,8.316c-3.667,0.501-7.503,1.723-11.304,3.621c1.99,0.441,4.003,1.038,6.026,1.782
				c2.28-0.333,4.521-0.496,6.691-0.496c1.371,0,2.713,0.067,4.02,0.196C143.079,11.446,141.253,9.731,139.346,8.316"/>
			<path fill="#BAD87D" d="M128.709,64.779c-2.282,0.333-4.522,0.495-6.694,0.495c-1.367,0-2.711-0.064-4.019-0.193
				c1.703,1.973,3.529,3.686,5.436,5.105c3.667-0.504,7.504-1.728,11.303-3.623C132.746,66.122,130.732,65.525,128.709,64.779"/>
			<path fill="#94C960" d="M99.304,35.884c-2.913,5.485-3.682,11.249-1.688,16.406c0.995,2.577,2.6,4.801,4.685,6.647
				c-1.664-4.656-1.649-10.271-0.077-16.114C100.944,40.521,99.963,38.187,99.304,35.884"/>
			<path fill="#94C960" d="M160.475,19.563c1.664,4.654,1.651,10.273,0.078,16.112c1.28,2.304,2.26,4.638,2.92,6.945
				c2.913-5.488,3.683-11.252,1.688-16.412C164.166,23.632,162.56,21.406,160.475,19.563"/>
			<path fill="#89AC3F" d="M128.042,11.937c-3.551,1.771-7.068,4.129-10.379,7.035c1.606-0.816,3.286-1.565,5.028-2.239
				c3.819-1.475,7.653-2.469,11.377-3.014C132.045,12.975,130.032,12.378,128.042,11.937"/>
			<path fill="#89AC3F" d="M145.112,59.528c-1.607,0.813-3.285,1.563-5.028,2.237c-3.819,1.477-7.651,2.471-11.375,3.014
				c2.021,0.746,4.037,1.343,6.025,1.784C138.287,64.792,141.805,62.434,145.112,59.528"/>
			<path fill="#5AB94D" d="M110.959,53.816c1.913,4.308,4.315,8.114,7.037,11.265c1.308,0.129,2.65,0.193,4.02,0.193
				c2.171,0,4.411-0.162,6.693-0.495c-3.529-1.305-7.074-3.073-10.503-5.31C115.556,57.741,113.131,55.839,110.959,53.816
				 M140.76,13.223c-2.171,0-4.411,0.163-6.691,0.496c3.529,1.307,7.072,3.076,10.502,5.31c2.65,1.728,5.073,3.631,7.246,5.653
				c-1.911-4.305-4.315-8.112-7.037-11.262C143.473,13.29,142.131,13.223,140.76,13.223"/>
			<path fill="#00B5A6" d="M150.854,66.545c-2.375,0.656-4.965,0.984-7.69,0.984c-2.699,0-5.535-0.323-8.429-0.966
				c-3.799,1.896-7.636,3.119-11.303,3.623c4.024,2.993,8.409,4.672,12.753,4.672c1.347,0,2.688-0.16,4.014-0.493
				C144.53,73.277,148.145,70.494,150.854,66.545 M126.591,3.642c-1.344,0-2.687,0.16-4.012,0.493
				c-4.332,1.087-7.947,3.871-10.655,7.82c2.375-0.659,4.964-0.984,7.689-0.984c2.7,0,5.534,0.32,8.429,0.966
				c3.801-1.898,7.637-3.12,11.304-3.621C135.321,5.32,130.936,3.642,126.591,3.642"/>
			<path fill="#3F9D47" d="M156.033,52.024c-3.075,2.83-6.757,5.39-10.921,7.504c-3.308,2.903-6.825,5.264-10.378,7.035
				c2.894,0.643,5.729,0.966,8.429,0.966c2.726,0,5.315-0.328,7.69-0.984C153.515,62.664,155.3,57.659,156.033,52.024
				 M119.613,10.971c-2.726,0-5.314,0.325-7.689,0.984c-2.662,3.881-4.447,8.886-5.182,14.519c3.077-2.831,6.756-5.387,10.921-7.502
				c3.311-2.905,6.828-5.263,10.379-7.035C125.147,11.291,122.313,10.971,119.613,10.971"/>
			<path fill="#00AF71" d="M106.742,26.473c-3.165,2.911-5.689,6.113-7.438,9.411c0.659,2.303,1.641,4.638,2.919,6.939
				c0.889-3.309,2.278-6.689,4.146-10.007C106.35,30.636,106.478,28.511,106.742,26.473"/>
			<path fill="#00AF71" d="M160.553,35.677c-0.888,3.308-2.277,6.688-4.146,10.007c0.021,2.179-0.107,4.302-0.374,6.34
				c3.165-2.911,5.689-6.11,7.439-9.405C162.813,40.313,161.833,37.978,160.553,35.677"/>
			<path fill="#00AF71" d="M134.068,13.718c-3.724,0.545-7.558,1.539-11.377,3.014c-1.742,0.674-3.422,1.423-5.028,2.239
				c-1.355,1.188-2.677,2.471-3.949,3.84c-2.948,3.169-5.404,6.555-7.345,10.005c0.035,3.958,0.553,8.106,1.606,12.308
				c0.77,3.067,1.779,5.979,2.983,8.692c2.172,2.022,4.597,3.925,7.247,5.653c3.431,2.236,6.973,4.005,10.503,5.31
				c3.724-0.543,7.556-1.537,11.375-3.014c1.743-0.675,3.421-1.421,5.028-2.237c1.354-1.19,2.674-2.469,3.948-3.84
				c2.949-3.169,5.405-6.554,7.347-10.004c-0.035-3.956-0.553-8.109-1.606-12.311c-0.771-3.065-1.779-5.979-2.983-8.692
				c-2.174-2.022-4.597-3.926-7.247-5.653C141.141,16.794,137.598,15.025,134.068,13.718"/>
			<path fill="#00974A" d="M117.663,18.971c-4.165,2.115-7.844,4.671-10.921,7.502c-0.265,2.038-0.393,4.163-0.373,6.343
				c1.939-3.45,4.396-6.836,7.345-10.005C114.986,21.442,116.309,20.159,117.663,18.971"/>
			<path fill="#00974A" d="M156.407,45.685c-1.941,3.45-4.397,6.835-7.347,10.004c-1.274,1.371-2.594,2.649-3.948,3.838
				c4.164-2.112,7.846-4.672,10.921-7.502C156.3,49.986,156.428,47.863,156.407,45.685"/>
			<path fill="#59595C" d="M13.857,40.003H4.952v8.044c0,0.862-0.825,1.689-2.045,1.689c-1.295,0-2.156-0.827-2.156-1.689V27.721
				c0-0.86,0.861-1.687,2.156-1.687c1.22,0,2.045,0.826,2.045,1.687v8.476h8.906v-8.476c0-0.86,0.828-1.687,2.156-1.687
				c1.184,0,2.046,0.826,2.046,1.687v20.326c0,0.862-0.862,1.689-2.046,1.689c-1.329,0-2.156-0.827-2.156-1.689"/>
			<path fill="#59595C" d="M33.141,41.402H24.63v0.936c0,2.298,1.472,3.806,4.059,3.806c1.292,0,2.441-0.178,3.051-0.467
				c0.683-0.323,1.293-0.752,1.831-0.752c0.935,0,1.51,0.646,1.546,1.542c0,1.511-2.802,3.27-6.393,3.27
				c-4.849,0-8.259-3.231-8.259-7.182v-3.807c0-4.202,3.305-7.688,7.864-7.688c5.422,0,7.613,3.951,7.613,7.291
				C35.941,40.578,35.151,41.402,33.141,41.402 M24.63,38.28h7.325v-0.54c0-1.939-1.507-3.194-3.663-3.194
				C26.174,34.546,24.81,36.054,24.63,38.28"/>
			<path fill="#59595C" d="M49.694,48.226v-0.571l-0.324-0.11c-0.863,1.224-1.867,2.192-4.704,2.192
				c-4.633,0-6.788-3.629-6.788-7.219v-3.16c0-3.985,2.837-8.298,8.439-8.298c5.28,0,7.542,3.019,7.542,7.112v10.054
				c0,0.865-0.825,1.688-2.155,1.688C50.519,49.914,49.694,49.091,49.694,48.226 M49.694,38.244c0-2.371-1.256-3.267-3.377-3.267
				c-2.441,0-4.129,1.976-4.13,4.238v3.445c0,1.725,1.473,3.161,3.376,3.161c2.083,0,4.131-1.4,4.131-4.202V38.244z"/>
			<path fill="#59595C" d="M57.232,26.644c0-0.86,0.861-1.687,2.155-1.687c1.221,0,2.046,0.827,2.046,1.687l-0.001,21.403
				c0,0.862-0.824,1.689-2.045,1.689c-1.294,0-2.155-0.827-2.155-1.689"/>
			<path fill="#59595C" d="M65.85,31.421v-3.701c0-0.86,0.826-1.687,2.155-1.687c1.22,0,2.046,0.826,2.046,1.687v3.701h2.657
				c0.791,0,1.544,0.646,1.544,1.616c0,1.041-0.754,1.687-1.544,1.687h-2.657v8.69c0,1.976,0.539,2.585,1.543,2.585
				c0.97,0,1.509-0.25,2.371-0.25c1.078,0,1.581,0.646,1.581,1.688c0,1.795-2.046,2.299-4.31,2.299
				c-3.733,0-5.387-1.726-5.387-6.464l0.001-8.548h-1.436c-0.79,0-1.545-0.646-1.545-1.687c0-0.971,0.755-1.616,1.545-1.616"/>
			<path fill="#59595C" d="M93.788,48.047c0,0.862-0.898,1.689-2.155,1.689c-1.221,0-2.082-0.827-2.082-1.689v-9.263
				c0-2.298-1.292-3.843-3.736-3.843c-2.081,0-3.699,1.149-3.77,3.662v9.444c0,0.862-0.827,1.689-2.047,1.689
				c-1.294,0-2.155-0.827-2.155-1.689l0.001-21.403c0-0.86,0.861-1.687,2.154-1.687c1.22,0,2.047,0.827,2.047,1.687v6.717
				l0.215,0.036c0.863-1.402,2.37-2.371,4.452-2.371c5.244,0,7.076,3.59,7.076,7.722"/>
			<path fill="#FFFFFF" d="M117.589,40.003h-8.907v8.044c0,0.862-0.825,1.689-2.047,1.689c-1.292,0-2.153-0.827-2.153-1.689V27.721
				c0-0.86,0.861-1.687,2.155-1.687c1.22,0,2.045,0.826,2.045,1.687v8.476h8.907v-8.476c0-0.86,0.826-1.687,2.154-1.687
				c1.185,0,2.047,0.826,2.047,1.687v20.326c0,0.862-0.862,1.689-2.047,1.689c-1.328,0-2.154-0.827-2.154-1.689"/>
			<path fill="#FFFFFF" d="M124.086,41.836v-9.051c0-0.86,0.862-1.687,2.155-1.687c1.22,0,2.048,0.827,2.048,1.687v9.194
				c0,2.624,1.651,3.843,3.769,3.843c2.121,0,3.736-1.219,3.736-3.843v-9.194c0-0.86,0.861-1.687,2.082-1.687
				c1.258,0,2.154,0.827,2.154,1.687v9.051c0,4.524-2.692,7.9-7.973,7.9C126.779,49.736,124.086,46.36,124.086,41.836"/>
			<path fill="#FFFFFF" d="M146.494,32.821l0.214,0.108c0.936-1.185,2.443-1.87,4.239-1.87c5.242,0,7.648,3.559,7.648,8.405v2.082
				c0,4.491-2.62,8.259-7.973,8.259c-5.53,0-8.331-3.086-8.331-7.179V26.644c0-0.862,0.861-1.687,2.155-1.687
				c1.221,0,2.047,0.824,2.047,1.687 M146.494,38.639v4.129c0,2.117,1.795,3.125,4.129,3.125c2.227,0,3.737-1.689,3.737-4.202
				v-2.153c0-2.947-1.654-4.561-4.096-4.561C148.182,34.977,146.566,36.124,146.494,38.639"/>
			<g>
				<path fill="#59595C" d="M169.404,27.976c0-0.692,0.116-1.333,0.349-1.916c0.233-0.583,0.564-1.09,0.994-1.513
					c0.43-0.426,0.946-0.759,1.55-1.002c0.604-0.24,1.279-0.359,2.029-0.359c0.743,0,1.417,0.119,2.025,0.359
					c0.606,0.243,1.126,0.576,1.556,1.002c0.429,0.423,0.761,0.93,0.994,1.513c0.231,0.583,0.349,1.224,0.349,1.916
					c0,0.695-0.117,1.335-0.349,1.919c-0.233,0.583-0.565,1.087-0.994,1.513c-0.43,0.426-0.949,0.759-1.556,1.002
					c-0.608,0.24-1.282,0.359-2.025,0.359c-0.75,0-1.425-0.119-2.029-0.359c-0.604-0.243-1.12-0.576-1.55-1.002
					s-0.761-0.93-0.994-1.513C169.521,29.312,169.404,28.671,169.404,27.976z M170.458,27.976c0,0.571,0.089,1.09,0.271,1.563
					c0.182,0.475,0.441,0.883,0.781,1.232c0.338,0.346,0.745,0.617,1.219,0.811c0.474,0.194,1.006,0.29,1.597,0.29
					c0.585,0,1.114-0.096,1.593-0.29c0.478-0.193,0.884-0.465,1.219-0.811c0.336-0.349,0.593-0.757,0.776-1.232
					c0.181-0.473,0.271-0.992,0.271-1.563c0-0.565-0.09-1.087-0.271-1.56c-0.184-0.475-0.44-0.883-0.776-1.232
					c-0.335-0.349-0.741-0.617-1.219-0.811c-0.479-0.193-1.008-0.289-1.593-0.289c-0.591,0-1.123,0.096-1.597,0.289
					c-0.474,0.194-0.881,0.462-1.219,0.811c-0.34,0.349-0.6,0.757-0.781,1.232C170.547,26.889,170.458,27.411,170.458,27.976z
					 M172.529,25.551c0-0.111,0.048-0.207,0.147-0.289c0.098-0.083,0.226-0.124,0.385-0.124h1.253c0.395,0,0.731,0.041,1.006,0.124
					c0.276,0.083,0.499,0.196,0.671,0.343c0.169,0.145,0.29,0.325,0.365,0.537c0.075,0.214,0.113,0.449,0.113,0.71v0.059
					c0,0.3-0.069,0.555-0.208,0.77c-0.138,0.214-0.381,0.388-0.727,0.522l0.97,2.012c0.062,0.085,0.072,0.188,0.029,0.307
					c-0.044,0.119-0.137,0.217-0.278,0.294c-0.127,0.064-0.249,0.08-0.372,0.049c-0.123-0.033-0.211-0.09-0.268-0.178l-0.993-2.118
					c-0.047,0.008-0.098,0.01-0.148,0.01s-0.104,0-0.16,0h-0.744v1.906c0,0.111-0.046,0.204-0.138,0.279
					c-0.09,0.075-0.214,0.111-0.371,0.111c-0.159,0-0.287-0.044-0.385-0.137c-0.1-0.09-0.147-0.191-0.147-0.299V25.551z
					 M173.57,26.024v1.704h0.744c0.403,0,0.688-0.067,0.857-0.207c0.171-0.137,0.256-0.31,0.256-0.514V26.83
					c0-0.253-0.085-0.449-0.256-0.591c-0.169-0.142-0.454-0.214-0.857-0.214H173.57z"/>
			</g>
		</g>
	</g>
</g>
</svg>
